<?xml version="1.0" encoding="utf-8"?>
<!-- Generator: Adobe Illustrator 24.0.2, SVG Export Plug-In . SVG Version: 6.00 Build 0)  -->
<svg version="1.1" id="Layer_1" xmlns="http://www.w3.org/2000/svg" xmlns:xlink="http://www.w3.org/1999/xlink" x="0px" y="0px"
	 viewBox="0 0 128 128" style="enable-background:new 0 0 128 128;" xml:space="preserve">
<style type="text/css">
	.st0{fill:#004A70;}
	.st1{fill:#FFFFFF;}
</style>
<rect class="st0" width="128" height="128"/>
<g>
	<g>
		<path class="st1" d="M8.1,92.3V44.5h6.5v47.9H8.1z M20.9,72.8L15.4,53h-2v-8.5h4.8L23.7,65H24l0.7,7.8H20.9z M22.8,72.8l1-7.8h0.4
			l5.5-20.6h4.8V53h-2l-5.5,19.8H22.8z M33.4,92.3V44.5h6.5v47.9H33.4z"/>
		<path class="st1" d="M59.2,92.3L45.7,44.5h7.2l11.2,42.1h0.6l11.2-42.1h7.2L69.7,92.3H59.2z"/>
		<path class="st1" d="M86.2,92.3L100,44.5h9.8l13.8,47.9h-7.1l-11.3-42.1h-0.6L93.3,92.3H86.2z M92.6,80.7v-6.4h24.3v6.4H92.6z"/>
	</g>
</g>
</svg>
